
<svg xmlns="http://www.w3.org/2000/svg" version="1.1" xmlns:xlink="http://www.w3.org/1999/xlink" width="308.7612359841165"
   height="304.915625"
   viewBox="0 0 106.00782394174519 104.68749999999999">
<svg xml:space="preserve" 
    data-version="2" data-id="lg_DFwcPjyOspSrxVYox5" viewBox="0 0 341 319" x="0" y="0">
<rect width="100%" height="100%" fill="transparent">
</rect>
<path fill="#c7efe0" stroke="#528265" stroke-width="3.258" d="M326.3 58.019C295.459-8.017 198.134-4.672 172.41 51.933c-23.758-57.44-120.84-64.225-154.009.69C-20.673 129.1 65.6 204.188 167.865 311.295 273.819 207.837 362.67 135.818 326.3 58.02M97.812 43.262a52.226 52.226 0 0 0-52.53 59.655 9.487 9.487 0 0 1-18.783 2.668 71.252 71.252 0 0 1 71.678-81.281 9.48 9.48 0 0 1-.333 18.958">
</path>
<path fill="#fff" d="m140.307 180.613 3.68 13.665a13.98 13.98 0 0 0 9.857 9.858l13.666 3.68-13.666 3.68a13.98 13.98 0 0 0-9.857 9.857l-3.68 13.665-3.68-13.665a13.98 13.98 0 0 0-9.857-9.857l-13.663-3.683 13.665-3.68a13.98 13.98 0 0 0 9.858-9.857z">
</path>
<path fill="#fff" stroke="#fff" stroke-width="2.305" d="m194.713 93.764 50.69 85.71q3.1 5.12 3.1 8.61 0 3.48-2.79 5.19-2.79 1.7-6.51 1.7h-49.91q-7.6 0-9.77-2.79-.62-.93-1.7-3.25l-4.5-9.61q-2.01-4.5-9.45-5.12h-29.3q-3.25 0-4.96.62-1.7.62-2.79 2.79l-6.04 12.56q-1.55 2.79-3.41 3.8-1.86 1-5.43 1h-13.95q-6.04 0-6.51-4.34-.15-.62-.15-1.24 0-3.56 2.32-6.82l48.52-85.56q6.97-12.09 22.63-12.09h12.4q12.4 0 17.51 8.84Zm-50.22 39.68-7.13 14.1q-.62 1.4-.62 2.48 0 4.03 3.88 4.03h14.1q3.26 0 4.5-1.62 1.24-1.63 1.24-2.87 0-1.24-.47-2.48l-5.89-13.33q-1.86-4.03-4.8-4.03-2.95 0-4.81 3.72Z">
</path>
<path fill="#0c6410" stroke="#fff" stroke-width="2.156" d="m193.123 97.154 47.41 80.18q2.9 4.79 2.9 8.05 0 3.26-2.61 4.86-2.61 1.59-6.09 1.59h-46.69q-7.1 0-9.13-2.61-.58-.87-1.6-3.04l-4.2-8.99q-1.89-4.21-8.85-4.79h-27.4q-3.05 0-4.64.58-1.6.58-2.61 2.61l-5.66 11.75q-1.45 2.61-3.19 3.55t-5.07.94h-13.05q-5.66 0-6.09-4.06-.15-.58-.15-1.16 0-3.33 2.18-6.38l45.38-80.04q6.53-11.31 21.17-11.31h11.6q11.6 0 16.39 8.27Zm-46.98 37.12-6.67 13.19q-.58 1.31-.58 2.32 0 3.77 3.62 3.77h13.2q3.04 0 4.2-1.52 1.16-1.52 1.16-2.68 0-1.16-.43-2.32l-5.51-12.47q-1.74-3.77-4.5-3.77-2.75 0-4.49 3.48Z">
</path>
</svg>
</svg>